<?xml version="1.0" encoding="UTF-8"?>
<svg id="_图层_1" data-name="图层_1" xmlns="http://www.w3.org/2000/svg" viewBox="0 0 388.45 587.5">
  <defs>
    <style>
      .cls-1 {
        fill: #27312b;
      }
    </style>
  </defs>
  <path class="cls-1" d="M387.47,388.25c-1.95-4.83-7.37-8.1-6.27-14.41.14-.78-1.14-2.01-2.01-2.72-1.77-1.46-3.71-2.71-5.51-4q3.46-12.67-2.31-18.83c7.6-5.79,6.2-16.41-2.89-20.09-2.62-1.06-3.8-2.45-4.61-5.05-2.43-7.75-8.14-11.73-16.01-10.02-4.74,1.03-9.03,4.16-14.13,6.64-4.5-6.52-11.25-8.66-19.67-4.67-.69.33-2.26-.39-2.97-1.08-2.45-2.4-4.7-5-7.26-7.78,6.3-2.74,10.64-7.48,11.74-14.83,8,1.05,13.51-1.36,14.92-9.5,10.21,1.86,17.1-3,18.01-13.03.36-3.92,1.87-5.68,5.28-7.28,8.2-3.85,12.83-10.88,11.29-18.7-1.2-6.08.96-9.3,5.22-13.02,10.31-9.03,10.9-15.25,3.35-25.94,5.29-6.91,5.75-14.14.86-21.62-.52-.8-.69-2.34-.27-3.16,3.44-6.72,3.51-13.33-.48-19.9,1.12-.69,1.95-1.26,2.81-1.73,11.48-6.31,14.12-24.12-.12-31.06-1.29-.63-2.52-1.69-3.38-2.85-6.5-8.72-8.03-9.28-17.66-6.19-3-2.16-5.92-4.26-8.95-6.44.62-1.87,1.67-3.59,1.67-5.31,0-3.37.43-9.06-1.1-9.72-8.07-3.52-10.13-11.4-14.67-17.47-1.2-1.61-3.46-2.53-5.37-3.48-1.73-.87-3.65-1.35-5.46-2,3.22-11.18,2.04-13.9-8.31-19.75-.53-.3-1.36-.73-1.41-1.16-.75-7.35-5.77-9.06-12.17-8.98-2.22-8.91-8.14-14.05-16.38-16.86-8.47-2.89-16.21-.39-23.59,4.03-3.78-14.31-4.3-14.69-16.55-12.36-2.65-5.09-6.83-8.18-12.88-8.7-1.15-.1-2.38-1.63-3.22-2.76-6.14-8.19-11.22-8.6-18.34-1.22-2.97,3.07-5.7,6.37-8.87,9.93-1.39-1.82-2.3-3.44-3.6-4.63-3.42-3.1-6.65-6.65-10.61-8.83-6.08-3.35-12.21-1.08-14.77,5.4-2.15,5.46-3.18,10.86-10.18,12.91-2.54.74-3.96,5.36-6.12,8.56-6.18-4.89-12.87-4.54-19.96-2.61-1.65.45-4.51-.63-5.73-1.99-8.72-9.74-27.99-15.22-38.43.39-.73,1.1-2.72,1.81-4.18,1.9-14.66.97-18.57,4.52-20.99,18.79-.26,1.55-1.86,3.61-3.3,4.11-10.65,3.71-13.09,9.53-8.02,19.45.71,1.39,1.06,3.59.47,4.92-3.2,7.23-1.67,12.38,5.5,16.57,2.08,1.22,4.33,2.16,6.45,3.21-2.08,5.27-2.78,10.61-9.39,12.46-2.43.68-4.07,4.89-5.63,7.74-.99,1.8-1.17,4.04-1.77,6.27-1.08-.19-1.88-.34-2.67-.48-7.29-1.25-13.18.36-16.63,7.67-.59,1.26-2.34,2.37-3.77,2.77-6.63,1.84-9.56,6.73-10,12.91-1.03,14.51,2.38,27.47,14.6,36.84.59.45,1.04,1.1,1.82,1.95-1.85.67-3.21,1.21-4.6,1.65-10.19,3.24-17.2,9.94-19.26,20.37-1.46,7.41-1.94,15.23-1.36,22.75.57,7.32,5.12,12.82,12.16,15.88,1.21.53,2.93,1.67,3.04,2.68.68,6.32,3.86,10.62,8.42,12.2-2.3,4.53-5.3,8.46-6.22,12.83-.86,4.11-1.54,6.59-6.08,8.03-2.17.69-3.69,4.65-4.68,7.43-.66,1.85.14,4.21.27,6.05-11.9,8.65.49,14.98,1.76,22.79-1.54.98-3.53,1.9-5.06,3.31-1.52,1.4-3.77,3.4-3.63,4.96.4,4.38-1.84,7.03-4.33,9.99-6.01,7.14-2.53,14.68.08,21.7,2.17,5.81,7.85,5.18,12.09,4.66,2.58,2.46,4.36,5.18,6.85,6.28,3.65,1.62,4.26,3.85,4,7.4-.44,6.03,1.09,11.58,7.31,13.93,3,1.14,4.39,2.88,5.7,5.53,4.49,9.07,12.59,10.43,20.55,4.07,2.93-2.34,6.55-3.85,9.91-5.62,3.97-2.09,8.45-3.51,11.87-6.27,2.61-2.1,5.59-5.9,5.45-8.8-.29-5.89,3.4-8.92,6.76-14.08,7.89,5.67,17,9.91,22.82,16.9,9.98,11.99,20.58,23.13,32.61,32.94,3.8,3.09,5.92,6.72,5.99,11.47.28,19.31.35,38.63.77,57.93.13,6.19-2.64,10.35-7.29,13.85-5.74,4.32-11.29,8.82-14.37,15.65-.56,1.24-1.98,2.29-3.24,2.97-9.32,5.06-16.09,12.66-22.48,20.94-2.68,3.47-7.02,5.91-11.03,8.03-2.69,1.42-6.09,1.57-9.21,2.07-6.7,1.08-10.4,5.1-12.43,11.42-1.88,5.85-.78,11.33.2,17.13.78,4.63,2.94,6.83,7.02,7.81,8.43,2.02,16.73,1.91,25.15-.64,2.61-.79,6.78-.57,8.67,1.03,10.39,8.8,20.96,8.41,32.47,2.58,5.9-2.99,12.53-4.36,18.57-.21,4.42,3.04,7.77,2.22,11.64-.89,1.88-1.51,4.84-2.9,7.05-2.57,10.18,1.51,20.24,3.77,30.39,5.5,8.69,1.48,17.36,3.09,25.85-1.66,1.94-1.08,5.11.09,7.72.14,4.89.09,9.83.58,14.65.03,4.77-.54,9.06-1.1,13.23,2.27,1.3,1.05,4.84,1.1,6.13.08,5.97-4.72,11.96-4.32,18.25-1.22,3.51,1.73,6.87,2.02,10.48.12,2.04-1.07,4.32-1.93,6.59-2.28,7.43-1.14,13.14-4.15,15.61-11.9.61-1.91,2.66-3.35,4.02-5.03,4.04-4.98,3.6-9.72-1.9-13.09-4.79-2.93-7.95-6.86-10.26-11.84-2.43-5.23-6.64-8.42-12.49-8.6-5.63-.17-11.3.51-16.91.19-3.68-.21-7.67-.84-10.87-2.52-8.81-4.61-12.27-13.82-15-22.22-2.73-8.39-6.84-14.59-14.09-19.02-9.64-5.9-13.61-14.41-12.86-25.64.26-3.99,1.42-6.9,4.28-9.6,5.44-5.15,10.61-10.59,15.93-15.85,8.16-8.07,16.36-16.09,25-24.58,4.38,5.1,8.45,8.67,9.02,15.08.52,5.78,4.91,9.86,10.66,10.39,7.99.74,13.84,4.16,19.33,9.88,6.04,6.3,12.63,5.46,18.59-.98.66-.72,1.36-1.64,2.22-1.91,8.12-2.49,10.46-8.42,10.26-16.22-.04-1.41,1.29-3.84,2.4-4.11,5.33-1.32,7.85-5.12,10.2-9.53.72-1.34,2.87-1.89,4.3-2.89,2.44-1.71,5.6-3.02,7.05-5.37,1.96-3.15,2.99-7.06,3.65-10.78.46-2.64.25-5.74-.74-8.2ZM152.37,344.73c-.51.34-1.02.69-1.54,1.03-5.25-3.68-10.83-6.97-15.64-11.15-3.63-3.15-7.05-5.95-11.99-6.41-4.51-.42-5.93-2.61-5.33-7.37.69-5.42,2.08-8.85,8.25-9.62,3.58-.45,5.45.93,7.81,2.95,5.36,4.59,11.02,8.81,16.48,13.28.87.71,1.83,1.92,1.87,2.93.2,4.78.09,9.57.09,14.36ZM277.58,313.36c-1.58,5.48-4.36,8.86-10.47,10.74-7.26,2.24-10.27,12.1-7.74,19.52.54,1.59.51,3.55.2,5.24-1.07,5.88.52,10.5,5.75,13.69,1.27.78,2.63,1.54,3.63,2.61,3.37,3.58,2.64,6.59-1.76,8.57-7.98,3.61-15.91,7.33-23.95,11.06v-72.64c9.15-.38,14.83-4.89,17.5-13.31.23-.72,2.4-1.58,3.17-1.24,2.36,1.06,4.8,2.34,6.62,4.13,2.92,2.86,5.38,6.2,8.26,9.59-.22.35-.93,1.12-1.19,2.02Z"/>
</svg>